<svg width="60" height="21" viewBox="0 0 60 21" fill="none" xmlns="http://www.w3.org/2000/svg">
<rect x="1.52295" y="1.5" width="56.8649" height="18" rx="2.5" fill="#388DE1"/>
<rect x="1.52295" y="1.5" width="56.8649" height="18" rx="2.5" stroke="#388DE1" stroke-width="3"/>
<path d="M19.6013 6.558V9.414H22.9613V10.716H19.6013V13.698H23.3813V15H18.0053V5.256H23.3813V6.558H19.6013ZM24.8151 11.108C24.8151 10.3333 24.9738 9.64733 25.2911 9.05C25.6178 8.45267 26.0565 7.99067 26.6071 7.664C27.1671 7.328 27.7878 7.16 28.4691 7.16C28.9731 7.16 29.4678 7.272 29.9531 7.496C30.4478 7.71067 30.8398 8 31.1291 8.364V4.64H32.7391V15H31.1291V13.838C30.8678 14.2113 30.5038 14.5193 30.0371 14.762C29.5798 15.0047 29.0525 15.126 28.4551 15.126C27.7831 15.126 27.1671 14.958 26.6071 14.622C26.0565 14.2767 25.6178 13.8007 25.2911 13.194C24.9738 12.578 24.8151 11.8827 24.8151 11.108ZM31.1291 11.136C31.1291 10.604 31.0171 10.142 30.7931 9.75C30.5785 9.358 30.2938 9.05933 29.9391 8.854C29.5845 8.64867 29.2018 8.546 28.7911 8.546C28.3805 8.546 27.9978 8.64867 27.6431 8.854C27.2885 9.05 26.9991 9.344 26.7751 9.736C26.5605 10.1187 26.4531 10.576 26.4531 11.108C26.4531 11.64 26.5605 12.1067 26.7751 12.508C26.9991 12.9093 27.2885 13.2173 27.6431 13.432C28.0071 13.6373 28.3898 13.74 28.7911 13.74C29.2018 13.74 29.5845 13.6373 29.9391 13.432C30.2938 13.2267 30.5785 12.928 30.7931 12.536C31.0171 12.1347 31.1291 11.668 31.1291 11.136ZM35.6474 6.264C35.3581 6.264 35.1154 6.166 34.9194 5.97C34.7234 5.774 34.6254 5.53133 34.6254 5.242C34.6254 4.95267 34.7234 4.71 34.9194 4.514C35.1154 4.318 35.3581 4.22 35.6474 4.22C35.9274 4.22 36.1654 4.318 36.3614 4.514C36.5574 4.71 36.6554 4.95267 36.6554 5.242C36.6554 5.53133 36.5574 5.774 36.3614 5.97C36.1654 6.166 35.9274 6.264 35.6474 6.264ZM36.4314 7.286V15H34.8354V7.286H36.4314ZM40.3888 8.588V12.858C40.3888 13.1473 40.4541 13.3573 40.5848 13.488C40.7248 13.6093 40.9581 13.67 41.2848 13.67H42.2648V15H41.0048C40.2861 15 39.7355 14.832 39.3528 14.496C38.9701 14.16 38.7788 13.614 38.7788 12.858V8.588H37.8688V7.286H38.7788V5.368H40.3888V7.286H42.2648V8.588H40.3888Z" fill="white"/>
</svg>
