<svg width="21" height="21" viewBox="0 0 21 21" fill="none" xmlns="http://www.w3.org/2000/svg">
<path d="M20.0919 19.6827H20.0865C19.8612 19.6827 19.6784 19.8654 19.6784 20.0908C19.6784 20.3162 19.8612 20.4989 20.0865 20.4989H20.0919C20.3172 20.4989 20.5 20.3162 20.5 20.0908C20.5 19.8654 20.3172 19.6827 20.0919 19.6827Z" fill="#202224"/>
<path d="M0.915491 19.6827H0.910139C0.684788 19.6827 0.502014 19.8654 0.502014 20.0908C0.502014 20.3162 0.684788 20.4989 0.910139 20.4989H0.915491C1.14084 20.4989 1.32362 20.3162 1.32362 20.0908C1.32362 19.8654 1.14084 19.6827 0.915491 19.6827Z" fill="#202224"/>
<path d="M9.01257 8.78586C8.76104 8.78586 8.5564 8.99051 8.5564 9.24207C8.5564 9.49359 8.76104 9.69824 9.01257 9.69824C9.26409 9.69824 9.46878 9.49359 9.46878 9.24207C9.46878 8.99047 9.26409 8.78586 9.01257 8.78586Z" fill="#202224"/>
<path d="M11.9894 8.78586C11.7379 8.78586 11.5332 8.99051 11.5332 9.24207C11.5332 9.49359 11.7379 9.69824 11.9894 9.69824C12.2409 9.69824 12.4455 9.49359 12.4456 9.24207C12.4456 8.99047 12.2409 8.78586 11.9894 8.78586Z" fill="#202224"/>
<path d="M10.8982 10.7087H10.1005C9.87519 10.7087 9.69241 10.8915 9.69241 11.1169C9.69241 11.5618 10.0544 11.9238 10.4993 11.9238C10.9442 11.9238 11.3063 11.5618 11.3063 11.1169C11.3062 10.8915 11.1235 10.7087 10.8982 10.7087Z" fill="#202224"/>
<path d="M10.5063 16.9186H10.501C10.2756 16.9186 10.0929 17.1014 10.0929 17.3268C10.0929 17.5521 10.2756 17.7349 10.501 17.7349H10.5063C10.7317 17.7349 10.9145 17.5522 10.9145 17.3268C10.9145 17.1013 10.7317 16.9186 10.5063 16.9186Z" fill="#202224"/>
<path d="M10.501 16.9186H10.4956C10.2703 16.9186 10.0875 17.1014 10.0875 17.3268C10.0875 17.5521 10.2703 17.7349 10.4956 17.7349H10.501C10.7264 17.7349 10.9091 17.5522 10.9091 17.3268C10.9091 17.1013 10.7264 16.9186 10.501 16.9186Z" fill="#202224"/>
<path d="M18.7662 19.6827H16.5019V16.9232C16.5019 16.1277 16.0218 15.3721 15.3344 15.0856L12.7079 13.9912C12.6144 13.9523 12.5541 13.8618 12.5541 13.7606V13.127L13.627 12.5136C13.6346 12.5093 13.6421 12.5047 13.6494 12.4999C14.1792 12.15 14.5275 11.5226 14.5811 10.8217C14.5819 10.8114 14.5822 10.801 14.5822 10.7906V10.4518C15.1122 10.2794 15.4964 9.78067 15.4964 9.19391C15.4964 8.60715 15.1122 8.10844 14.5822 7.93602V7.60559H14.9967C15.3019 7.60559 15.5501 7.35731 15.5501 7.05215V6.23828C15.5501 6.00297 15.4025 5.80149 15.195 5.72157C15.0519 4.68797 14.5685 3.7309 13.8123 2.99723C13.2546 2.4561 12.5779 2.06442 11.8392 1.85266V1.5861C11.8392 1.2709 11.5909 1.01453 11.2858 1.01453H9.71615C9.41096 1.01453 9.16272 1.27094 9.16272 1.5861V1.87567C8.4544 2.09227 7.80428 2.47606 7.26717 2.99727C6.51693 3.72524 6.03514 4.67305 5.88791 5.69746C5.63893 5.75145 5.45182 5.97348 5.45182 6.2384V7.05227C5.45182 7.35746 5.70014 7.60571 6.00529 7.60571H6.41971V7.93614C5.88971 8.10852 5.50557 8.60727 5.50557 9.19403C5.50557 9.78078 5.88975 10.2795 6.41971 10.4519V10.7907C6.41971 10.8011 6.4201 10.8115 6.42088 10.8218C6.47428 11.5199 6.82494 12.1472 7.35912 12.5C7.36627 12.5047 7.37357 12.5092 7.381 12.5135L8.44783 13.1252V13.7607C8.44783 13.8619 8.38748 13.9525 8.29408 13.9914L5.66748 15.0857C4.9801 15.3722 4.50002 16.1278 4.50002 16.9233V19.6829H2.23576C2.01041 19.6829 1.82764 19.8656 1.82764 20.091C1.82764 20.3164 2.01041 20.4991 2.23576 20.4991H18.7662C18.9915 20.4991 19.1743 20.3164 19.1743 20.091C19.1743 19.8656 18.9915 19.6827 18.7662 19.6827ZM6.26811 6.78946V6.50102C6.47838 6.49535 6.65076 6.3302 6.66424 6.11907C6.72568 5.15703 7.14166 4.25645 7.83561 3.58313C8.2185 3.2116 8.67053 2.92465 9.16279 2.73801V5.75285C9.16279 5.97825 9.34557 6.16098 9.57092 6.16098C9.79627 6.16098 9.97904 5.97825 9.97904 5.75285V1.83078H11.0231L11.0296 5.75282C11.0296 5.97821 11.2124 6.16094 11.4377 6.16094C11.6631 6.16094 11.8458 5.97821 11.8458 5.75282V2.71211C12.3654 2.89742 12.842 3.19313 13.244 3.58309C13.9379 4.25645 14.3538 5.15707 14.4153 6.11903C14.4271 6.30356 14.5603 6.45297 14.734 6.49145V6.78942L6.26811 6.78946ZM7.7992 11.8122C7.48764 11.6013 7.27307 11.2057 7.236 10.7742V10.1082C7.236 9.88278 7.05322 9.70004 6.82787 9.70004C6.54885 9.70004 6.32186 9.47301 6.32186 9.19403C6.32186 8.91504 6.54889 8.68801 6.82787 8.68801C7.05322 8.68801 7.236 8.50528 7.236 8.27989V7.60578H13.766V8.27989C13.766 8.50528 13.9487 8.68801 14.1741 8.68801C14.4531 8.68801 14.6801 8.91504 14.6801 9.19403C14.6801 9.47301 14.4531 9.70004 14.1741 9.70004C13.9487 9.70004 13.766 9.88278 13.766 10.1082V10.7743C13.7284 11.2148 13.5214 11.6009 13.2095 11.8121L11.0119 13.0684C11.0043 13.0728 10.9969 13.0774 10.9895 13.0822C10.6835 13.2843 10.3183 13.2843 10.0122 13.0822C10.0051 13.0775 9.99779 13.073 9.99037 13.0687L7.7992 11.8122ZM11.7386 13.7805C11.446 14.1709 10.9919 14.4008 10.499 14.4008C10.0085 14.4008 9.55592 14.1727 9.26322 13.7854C9.26338 13.7771 9.26412 13.7689 9.26412 13.7606V13.5931L9.57393 13.7707C9.86049 13.9569 10.1807 14.05 10.5009 14.05C10.8211 14.05 11.1412 13.9569 11.4277 13.7709L11.7378 13.5936V13.7605C11.7378 13.7673 11.7385 13.7738 11.7386 13.7805ZM6.19529 19.6827H5.31631V16.9232C5.31631 16.4631 5.60229 15.9971 5.98146 15.8391L6.19529 15.75V19.6827ZM7.01154 19.6827V15.4099L7.76658 15.0954V17.3267C7.76658 17.5521 7.94936 17.7348 8.17471 17.7348H9.17533C9.40068 17.7348 9.58346 17.5521 9.58346 17.3267C9.58346 17.1013 9.40068 16.9186 9.17533 16.9186H8.58279V14.7552L8.60807 14.7447C8.70897 14.7027 8.80072 14.6464 8.88166 14.579C9.31447 14.9855 9.8876 15.217 10.499 15.217C11.1117 15.217 11.6854 14.9849 12.1183 14.5772C12.1997 14.6454 12.2921 14.7023 12.3938 14.7447L12.4191 14.7553V16.9186H11.8266C11.6012 16.9186 11.4185 17.1014 11.4185 17.3268C11.4185 17.5522 11.6012 17.7349 11.8266 17.7349H12.8272C13.0526 17.7349 13.2353 17.5522 13.2353 17.3268V15.0954L13.9904 15.41V19.6827H7.01154V19.6827ZM15.6856 19.6827H14.8067V15.75L15.0204 15.8391C15.3997 15.9971 15.6856 16.4632 15.6856 16.9232V19.6827Z" fill="#202224"/>
<path d="M20.0899 10.9863H15.7638C15.5384 10.9863 15.3557 11.169 15.3557 11.3944V13.9239C15.3557 14.4264 15.7644 14.8351 16.2668 14.8351H16.9641V17.6521C16.9641 18.1922 17.4035 18.6316 17.9436 18.6316C18.4837 18.6316 18.9231 18.1922 18.9231 17.6521V14.8351H19.5869C20.0893 14.8351 20.498 14.4264 20.498 13.9239V11.3944C20.498 11.169 20.3152 10.9863 20.0899 10.9863ZM18.1068 17.6521C18.1068 17.7406 18.0321 17.8154 17.9436 17.8154C17.8551 17.8154 17.7803 17.7406 17.7803 17.6521V14.8352H18.1068V17.6521ZM19.6817 13.9239C19.6817 13.9754 19.6383 14.0189 19.5869 14.0189H16.2668C16.2153 14.0189 16.1719 13.9754 16.1719 13.9239V13.0218H19.6817V13.9239ZM19.6817 12.2055H16.1719V11.8025H19.6817V12.2055Z" fill="#202224"/>
<path d="M2.66305 0.500977C1.47031 0.500977 0.5 1.47133 0.5 2.66402V4.87117C0.5 5.09656 0.682773 5.2793 0.908125 5.2793H2.25492V6.42352C1.87184 6.58375 1.60191 6.96234 1.60191 7.40289V10.0641C1.60191 10.6492 2.07789 11.1253 2.66305 11.1253C3.24816 11.1253 3.72418 10.6493 3.72418 10.0641V7.40289C3.72418 6.96238 3.4543 6.58375 3.07117 6.42352V5.2793H4.41797C4.64332 5.2793 4.82609 5.09656 4.82609 4.87117V2.66402C4.82609 1.47133 3.85578 0.500977 2.66305 0.500977ZM2.90793 10.0642C2.90793 10.1969 2.79578 10.3091 2.66305 10.3091C2.53031 10.3091 2.41816 10.1969 2.41816 10.0642V7.40293C2.41816 7.2702 2.53031 7.15805 2.66305 7.15805C2.79578 7.15805 2.90793 7.2702 2.90793 7.40293V10.0642ZM4.00984 4.46305H3.07117V3.85652C3.07117 3.63113 2.8884 3.4484 2.66305 3.4484C2.4377 3.4484 2.25492 3.63113 2.25492 3.85652V4.46305H1.31625V2.66402C1.31625 1.92141 1.92043 1.31723 2.66305 1.31723C3.40566 1.31723 4.00984 1.92141 4.00984 2.66402V4.46305Z" fill="#202224"/>
<path d="M11.9348 18.6489H11.9294C11.7041 18.6489 11.5213 18.8316 11.5213 19.057C11.5213 19.2824 11.7041 19.4651 11.9294 19.4651H11.9348C12.1601 19.4651 12.3429 19.2824 12.3429 19.057C12.3429 18.8316 12.1602 18.6489 11.9348 18.6489Z" fill="#202224"/>
<path d="M10.6091 18.6488H9.07789C8.85254 18.6488 8.66977 18.8315 8.66977 19.057C8.66977 19.2823 8.85254 19.4651 9.07789 19.4651H10.6091C10.8345 19.4651 11.0172 19.2823 11.0172 19.057C11.0172 18.8315 10.8345 18.6488 10.6091 18.6488Z" fill="#202224"/>
</svg>
