<svg width="17" height="17" viewBox="0 0 17 17" fill="none" xmlns="http://www.w3.org/2000/svg">
<path d="M2.65625 2.44922C4.28906 0.816406 6.23698 0 8.5 0C10.763 0 12.6966 0.816406 14.3008 2.44922C15.9336 4.05339 16.75 5.98698 16.75 8.25C16.75 10.513 15.9336 12.4609 14.3008 14.0938C12.6966 15.6979 10.763 16.5 8.5 16.5C6.23698 16.5 4.28906 15.6979 2.65625 14.0938C1.05208 12.4609 0.25 10.513 0.25 8.25C0.25 5.98698 1.05208 4.05339 2.65625 2.44922ZM13.3555 3.39453C12.0091 2.04818 10.3906 1.375 8.5 1.375C6.60938 1.375 4.99089 2.04818 3.64453 3.39453C2.29818 4.74089 1.625 6.35938 1.625 8.25C1.625 10.1406 2.29818 11.7591 3.64453 13.1055C4.99089 14.4518 6.60938 15.125 8.5 15.125C10.3906 15.125 12.0091 14.4518 13.3555 13.1055C14.7018 11.7591 15.375 10.1406 15.375 8.25C15.375 6.35938 14.7018 4.74089 13.3555 3.39453ZM7.98438 2.27734C8.1276 2.13411 8.29948 2.0625 8.5 2.0625C8.70052 2.0625 8.85807 2.13411 8.97266 2.27734C9.11589 2.39193 9.1875 2.54948 9.1875 2.75C9.1875 2.95052 9.11589 3.1224 8.97266 3.26562C8.85807 3.38021 8.70052 3.4375 8.5 3.4375C8.29948 3.4375 8.1276 3.38021 7.98438 3.26562C7.86979 3.1224 7.8125 2.95052 7.8125 2.75C7.8125 2.54948 7.86979 2.39193 7.98438 2.27734ZM4.11719 3.91016C4.26042 3.76693 4.41797 3.69531 4.58984 3.69531C4.79036 3.69531 4.96224 3.76693 5.10547 3.91016C5.2487 4.02474 5.32031 4.18229 5.32031 4.38281C5.32031 4.55469 5.2487 4.71224 5.10547 4.85547C4.96224 4.9987 4.79036 5.07031 4.58984 5.07031C4.41797 5.07031 4.26042 4.9987 4.11719 4.85547C4.0026 4.71224 3.94531 4.55469 3.94531 4.38281C3.94531 4.18229 4.0026 4.02474 4.11719 3.91016ZM11.8945 3.86719L12.8828 4.85547L9.83203 7.90625C9.86068 8.02083 9.875 8.13542 9.875 8.25C9.875 8.6224 9.73177 8.95182 9.44531 9.23828C9.1875 9.49609 8.8724 9.625 8.5 9.625C8.1276 9.625 7.79818 9.49609 7.51172 9.23828C7.25391 8.95182 7.125 8.6224 7.125 8.25C7.125 7.8776 7.25391 7.5625 7.51172 7.30469C7.79818 7.01823 8.1276 6.875 8.5 6.875C8.61458 6.875 8.72917 6.88932 8.84375 6.91797L11.8945 3.86719ZM2.48438 7.77734C2.6276 7.63411 2.79948 7.5625 3 7.5625C3.20052 7.5625 3.35807 7.63411 3.47266 7.77734C3.61589 7.89193 3.6875 8.04948 3.6875 8.25C3.6875 8.45052 3.61589 8.6224 3.47266 8.76562C3.35807 8.88021 3.20052 8.9375 3 8.9375C2.79948 8.9375 2.6276 8.88021 2.48438 8.76562C2.36979 8.6224 2.3125 8.45052 2.3125 8.25C2.3125 8.04948 2.36979 7.89193 2.48438 7.77734ZM13.4844 7.77734C13.6276 7.63411 13.7995 7.5625 14 7.5625C14.2005 7.5625 14.3581 7.63411 14.4727 7.77734C14.6159 7.89193 14.6875 8.04948 14.6875 8.25C14.6875 8.45052 14.6159 8.6224 14.4727 8.76562C14.3581 8.88021 14.2005 8.9375 14 8.9375C13.7995 8.9375 13.6276 8.88021 13.4844 8.76562C13.3698 8.6224 13.3125 8.45052 13.3125 8.25C13.3125 8.04948 13.3698 7.89193 13.4844 7.77734ZM4.11719 11.6445C4.26042 11.5013 4.41797 11.4297 4.58984 11.4297C4.79036 11.4297 4.96224 11.5013 5.10547 11.6445C5.2487 11.7878 5.32031 11.9596 5.32031 12.1602C5.32031 12.332 5.2487 12.4896 5.10547 12.6328C4.96224 12.7474 4.79036 12.8047 4.58984 12.8047C4.41797 12.8047 4.26042 12.7474 4.11719 12.6328C4.0026 12.4896 3.94531 12.332 3.94531 12.1602C3.94531 11.9596 4.0026 11.7878 4.11719 11.6445ZM11.8945 11.6445C12.0378 11.5013 12.1953 11.4297 12.3672 11.4297C12.5677 11.4297 12.7253 11.5013 12.8398 11.6445C12.9831 11.7878 13.0547 11.9596 13.0547 12.1602C13.0547 12.332 12.9831 12.4896 12.8398 12.6328C12.7253 12.7474 12.5677 12.8047 12.3672 12.8047C12.1953 12.8047 12.0378 12.7474 11.8945 12.6328C11.7513 12.4896 11.6797 12.332 11.6797 12.1602C11.6797 11.9596 11.7513 11.7878 11.8945 11.6445Z" fill="white"/>
</svg>
