<svg width="117" height="23" viewBox="0 0 117 23" fill="none" xmlns="http://www.w3.org/2000/svg">
<rect x="0.799805" y="0.984375" width="115.5" height="21.39" rx="3" fill="#F8F4F4"/>
<path d="M13.1665 18.6058C12.7998 18.6058 12.4859 18.4752 12.2248 18.2141C11.9637 17.953 11.8332 17.6391 11.8332 17.2725C11.8332 16.9058 11.9637 16.5919 12.2248 16.3308C12.4859 16.0697 12.7998 15.9391 13.1665 15.9391C13.5332 15.9391 13.8471 16.0697 14.1082 16.3308C14.3693 16.5919 14.4998 16.9058 14.4998 17.2725C14.4998 17.6391 14.3693 17.953 14.1082 18.2141C13.8471 18.4752 13.5332 18.6058 13.1665 18.6058ZM19.8332 18.6058C19.4665 18.6058 19.1526 18.4752 18.8915 18.2141C18.6304 17.953 18.4998 17.6391 18.4998 17.2725C18.4998 16.9058 18.6304 16.5919 18.8915 16.3308C19.1526 16.0697 19.4665 15.9391 19.8332 15.9391C20.1998 15.9391 20.5137 16.0697 20.7748 16.3308C21.0359 16.5919 21.1665 16.9058 21.1665 17.2725C21.1665 17.6391 21.0359 17.953 20.7748 18.2141C20.5137 18.4752 20.1998 18.6058 19.8332 18.6058ZM9.1665 6.60579V5.27246H11.3498L14.1832 11.2725H18.8498L21.4498 6.60579H22.9665L20.0332 11.9058C19.9109 12.128 19.7471 12.3002 19.5415 12.4225C19.3359 12.5447 19.1109 12.6058 18.8665 12.6058H13.8998L13.1665 13.9391H21.1665V15.2725H13.1665C12.6665 15.2725 12.2859 15.0558 12.0248 14.6225C11.7637 14.1891 11.7554 13.7502 11.9998 13.3058L12.8998 11.6725L10.4998 6.60579H9.1665Z" fill="#1A1A1A"/>
<path d="M13.3281 4.91207C13.3281 4.49896 13.4069 4.11043 13.5646 3.7465C13.7222 3.38257 13.9365 3.06535 14.2074 2.79486C14.4784 2.52437 14.7961 2.31044 15.1606 2.15306C15.5252 1.99568 15.9143 1.91699 16.3281 1.91699C16.7419 1.91699 17.1311 1.99568 17.4956 2.15306C17.8601 2.31044 18.1779 2.52437 18.4488 2.79486C18.7198 3.06535 18.934 3.38257 19.0917 3.7465C19.2493 4.11043 19.3281 4.49896 19.3281 4.91207C19.3281 5.31535 19.1853 5.84158 18.8996 6.49076C18.6138 7.13994 18.2961 7.77929 17.9464 8.4088C17.5966 9.0383 17.2739 9.58912 16.9784 10.0613C16.6828 10.5334 16.5202 10.7891 16.4907 10.8285C16.471 10.858 16.4464 10.8801 16.4168 10.8949C16.3872 10.9096 16.3577 10.917 16.3281 10.917C16.2986 10.917 16.269 10.9096 16.2395 10.8949C16.2099 10.8801 16.1853 10.858 16.1656 10.8285C16.136 10.7891 15.9734 10.5334 15.6779 10.0613C15.3725 9.58912 15.0473 9.0383 14.7025 8.4088C14.3577 7.77929 14.0424 7.13994 13.7567 6.49076C13.471 5.84158 13.3281 5.31535 13.3281 4.91207ZM15.3232 5.01535C15.3232 5.3006 15.4217 5.54404 15.6188 5.74568C15.8158 5.94732 16.0523 6.04814 16.3281 6.04814C16.604 6.04814 16.8404 5.94732 17.0375 5.74568C17.2345 5.54404 17.3331 5.3006 17.3331 5.01535C17.3331 4.73011 17.2345 4.48666 17.0375 4.28502C16.8404 4.08338 16.604 3.98257 16.3281 3.98257C16.0523 3.98257 15.8158 4.08338 15.6188 4.28502C15.4217 4.48666 15.3232 4.73011 15.3232 5.01535Z" fill="#1A1A1A"/>
<path d="M31.8158 15.4968H34.7438V16.3848H30.7238V8.02077H31.8158V15.4968ZM36.4675 8.74077C36.2595 8.74077 36.0835 8.66877 35.9395 8.52477C35.7955 8.38077 35.7235 8.20477 35.7235 7.99676C35.7235 7.78877 35.7955 7.61277 35.9395 7.46877C36.0835 7.32477 36.2595 7.25277 36.4675 7.25277C36.6675 7.25277 36.8355 7.32477 36.9715 7.46877C37.1155 7.61277 37.1875 7.78877 37.1875 7.99676C37.1875 8.20477 37.1155 8.38077 36.9715 8.52477C36.8355 8.66877 36.6675 8.74077 36.4675 8.74077ZM36.9955 9.80877V16.3848H35.9035V9.80877H36.9955ZM41.3046 15.3768L43.3446 9.80877H44.5086L41.9286 16.3848H40.6566L38.0766 9.80877H39.2526L41.3046 15.3768ZM51.5832 12.8448C51.5832 13.0528 51.5712 13.2728 51.5472 13.5048H46.2912C46.3312 14.1528 46.5512 14.6608 46.9512 15.0288C47.3592 15.3888 47.8512 15.5688 48.4272 15.5688C48.8992 15.5688 49.2912 15.4608 49.6032 15.2448C49.9232 15.0208 50.1472 14.7248 50.2752 14.3568H51.4512C51.2752 14.9888 50.9232 15.5048 50.3952 15.9048C49.8672 16.2968 49.2112 16.4928 48.4272 16.4928C47.8032 16.4928 47.2432 16.3528 46.7472 16.0728C46.2592 15.7928 45.8752 15.3968 45.5952 14.8848C45.3152 14.3648 45.1752 13.7648 45.1752 13.0848C45.1752 12.4048 45.3112 11.8088 45.5832 11.2968C45.8552 10.7848 46.2352 10.3928 46.7232 10.1208C47.2192 9.84077 47.7872 9.70077 48.4272 9.70077C49.0512 9.70077 49.6032 9.83677 50.0832 10.1088C50.5632 10.3808 50.9312 10.7568 51.1872 11.2368C51.4512 11.7088 51.5832 12.2448 51.5832 12.8448ZM50.4552 12.6168C50.4552 12.2008 50.3632 11.8448 50.1792 11.5488C49.9952 11.2448 49.7432 11.0168 49.4232 10.8648C49.1112 10.7048 48.7632 10.6248 48.3792 10.6248C47.8272 10.6248 47.3552 10.8008 46.9632 11.1528C46.5792 11.5048 46.3592 11.9928 46.3032 12.6168H50.4552ZM61.3718 8.02077V8.90877H59.0918V16.3848H57.9998V8.90877H55.7078V8.02077H61.3718ZM63.808 10.8768C64 10.5008 64.272 10.2088 64.624 10.0008C64.984 9.79277 65.42 9.68877 65.932 9.68877V10.8168H65.644C64.42 10.8168 63.808 11.4808 63.808 12.8088V16.3848H62.716V9.80877H63.808V10.8768ZM66.7846 13.0728C66.7846 12.4008 66.9206 11.8128 67.1926 11.3088C67.4646 10.7968 67.8366 10.4008 68.3086 10.1208C68.7886 9.84077 69.3206 9.70077 69.9046 9.70077C70.4806 9.70077 70.9806 9.82477 71.4046 10.0728C71.8286 10.3208 72.1446 10.6328 72.3526 11.0088V9.80877H73.4566V16.3848H72.3526V15.1608C72.1366 15.5448 71.8126 15.8648 71.3806 16.1208C70.9566 16.3688 70.4606 16.4928 69.8926 16.4928C69.3086 16.4928 68.7806 16.3488 68.3086 16.0608C67.8366 15.7728 67.4646 15.3688 67.1926 14.8488C66.9206 14.3288 66.7846 13.7368 66.7846 13.0728ZM72.3526 13.0848C72.3526 12.5888 72.2526 12.1568 72.0526 11.7888C71.8526 11.4208 71.5806 11.1408 71.2366 10.9488C70.9006 10.7488 70.5286 10.6488 70.1206 10.6488C69.7126 10.6488 69.3406 10.7448 69.0046 10.9368C68.6686 11.1288 68.4006 11.4088 68.2006 11.7768C68.0006 12.1448 67.9006 12.5768 67.9006 13.0728C67.9006 13.5768 68.0006 14.0168 68.2006 14.3928C68.4006 14.7608 68.6686 15.0448 69.0046 15.2448C69.3406 15.4368 69.7126 15.5328 70.1206 15.5328C70.5286 15.5328 70.9006 15.4368 71.2366 15.2448C71.5806 15.0448 71.8526 14.7608 72.0526 14.3928C72.2526 14.0168 72.3526 13.5808 72.3526 13.0848ZM74.8939 13.0848C74.8939 12.4048 75.0299 11.8128 75.3019 11.3088C75.5739 10.7968 75.9499 10.4008 76.4299 10.1208C76.9179 9.84077 77.4739 9.70077 78.0979 9.70077C78.9059 9.70077 79.5699 9.89677 80.0899 10.2888C80.6179 10.6808 80.9659 11.2248 81.1339 11.9208H79.9579C79.8459 11.5208 79.6259 11.2048 79.2979 10.9728C78.9779 10.7408 78.5779 10.6248 78.0979 10.6248C77.4739 10.6248 76.9699 10.8408 76.5859 11.2728C76.2019 11.6968 76.0099 12.3008 76.0099 13.0848C76.0099 13.8768 76.2019 14.4888 76.5859 14.9208C76.9699 15.3528 77.4739 15.5688 78.0979 15.5688C78.5779 15.5688 78.9779 15.4568 79.2979 15.2328C79.6179 15.0088 79.8379 14.6888 79.9579 14.2728H81.1339C80.9579 14.9448 80.6059 15.4848 80.0779 15.8928C79.5499 16.2928 78.8899 16.4928 78.0979 16.4928C77.4739 16.4928 76.9179 16.3528 76.4299 16.0728C75.9499 15.7928 75.5739 15.3968 75.3019 14.8848C75.0299 14.3728 74.8939 13.7728 74.8939 13.0848ZM86.263 16.3848L83.683 13.4808V16.3848H82.591V7.50477H83.683V12.7248L86.215 9.80877H87.739L84.643 13.0848L87.751 16.3848H86.263ZM89.3308 8.74077C89.1228 8.74077 88.9468 8.66877 88.8028 8.52477C88.6588 8.38077 88.5868 8.20477 88.5868 7.99676C88.5868 7.78877 88.6588 7.61277 88.8028 7.46877C88.9468 7.32477 89.1228 7.25277 89.3308 7.25277C89.5308 7.25277 89.6988 7.32477 89.8348 7.46877C89.9788 7.61277 90.0508 7.78877 90.0508 7.99676C90.0508 8.20477 89.9788 8.38077 89.8348 8.52477C89.6988 8.66877 89.5308 8.74077 89.3308 8.74077ZM89.8588 9.80877V16.3848H88.7668V9.80877H89.8588ZM94.9239 9.68877C95.7239 9.68877 96.3719 9.93277 96.8679 10.4208C97.3639 10.9008 97.6119 11.5968 97.6119 12.5088V16.3848H96.5319V12.6648C96.5319 12.0088 96.3679 11.5088 96.0399 11.1648C95.7119 10.8128 95.2639 10.6368 94.6959 10.6368C94.1199 10.6368 93.6599 10.8168 93.3159 11.1768C92.9799 11.5368 92.8119 12.0608 92.8119 12.7488V16.3848H91.7199V9.80877H92.8119V10.7448C93.0279 10.4088 93.3199 10.1488 93.6879 9.96477C94.0639 9.78077 94.4759 9.68877 94.9239 9.68877ZM102.108 9.70077C102.676 9.70077 103.172 9.82477 103.596 10.0728C104.028 10.3208 104.348 10.6328 104.556 11.0088V9.80877H105.66V16.5288C105.66 17.1288 105.532 17.6608 105.276 18.1248C105.02 18.5968 104.652 18.9648 104.172 19.2288C103.7 19.4928 103.148 19.6248 102.516 19.6248C101.652 19.6248 100.932 19.4208 100.356 19.0128C99.7797 18.6048 99.4397 18.0488 99.3357 17.3448H100.416C100.536 17.7448 100.784 18.0648 101.16 18.3048C101.536 18.5528 101.988 18.6768 102.516 18.6768C103.116 18.6768 103.604 18.4888 103.98 18.1128C104.364 17.7368 104.556 17.2088 104.556 16.5288V15.1488C104.34 15.5328 104.02 15.8528 103.596 16.1088C103.172 16.3648 102.676 16.4928 102.108 16.4928C101.524 16.4928 100.992 16.3488 100.512 16.0608C100.04 15.7728 99.6677 15.3688 99.3957 14.8488C99.1237 14.3288 98.9877 13.7368 98.9877 13.0728C98.9877 12.4008 99.1237 11.8128 99.3957 11.3088C99.6677 10.7968 100.04 10.4008 100.512 10.1208C100.992 9.84077 101.524 9.70077 102.108 9.70077ZM104.556 13.0848C104.556 12.5888 104.456 12.1568 104.256 11.7888C104.056 11.4208 103.784 11.1408 103.44 10.9488C103.104 10.7488 102.732 10.6488 102.324 10.6488C101.916 10.6488 101.544 10.7448 101.208 10.9368C100.872 11.1288 100.604 11.4088 100.404 11.7768C100.204 12.1448 100.104 12.5768 100.104 13.0728C100.104 13.5768 100.204 14.0168 100.404 14.3928C100.604 14.7608 100.872 15.0448 101.208 15.2448C101.544 15.4368 101.916 15.5328 102.324 15.5328C102.732 15.5328 103.104 15.4368 103.44 15.2448C103.784 15.0448 104.056 14.7608 104.256 14.3928C104.456 14.0168 104.556 13.5808 104.556 13.0848Z" fill="#3E3E52"/>
</svg>
