<svg width="20" height="21" viewBox="0 0 20 21" fill="none" xmlns="http://www.w3.org/2000/svg">
<g id="location_on_24dp_E8EAED_FILL0_wght400_GRAD0_opsz24 2">
<path id="Vector" d="M10.0007 10.5013C10.459 10.5013 10.8513 10.3381 11.1777 10.0117C11.5041 9.68533 11.6673 9.29297 11.6673 8.83463C11.6673 8.3763 11.5041 7.98394 11.1777 7.65755C10.8513 7.33116 10.459 7.16797 10.0007 7.16797C9.54232 7.16797 9.14996 7.33116 8.82357 7.65755C8.49718 7.98394 8.33398 8.3763 8.33398 8.83463C8.33398 9.29297 8.49718 9.68533 8.82357 10.0117C9.14996 10.3381 9.54232 10.5013 10.0007 10.5013ZM10.0007 16.6263C11.6951 15.0707 12.952 13.6576 13.7715 12.3867C14.5909 11.1159 15.0007 9.98741 15.0007 9.0013C15.0007 7.48741 14.518 6.24783 13.5527 5.28255C12.5875 4.31727 11.4034 3.83464 10.0007 3.83464C8.59787 3.83464 7.41385 4.31727 6.44857 5.28255C5.48329 6.24783 5.00065 7.48741 5.00065 9.0013C5.00065 9.98741 5.41037 11.1159 6.22982 12.3867C7.04926 13.6576 8.30621 15.0707 10.0007 16.6263ZM10.0007 18.8346C7.76454 16.9319 6.0944 15.1645 4.99023 13.5326C3.88607 11.9006 3.33398 10.3902 3.33398 9.0013C3.33398 6.91797 4.00412 5.25825 5.3444 4.02214C6.68468 2.78602 8.23676 2.16797 10.0007 2.16797C11.7645 2.16797 13.3166 2.78602 14.6569 4.02214C15.9972 5.25825 16.6673 6.91797 16.6673 9.0013C16.6673 10.3902 16.1152 11.9006 15.0111 13.5326C13.9069 15.1645 12.2368 16.9319 10.0007 18.8346Z" fill="#202224" fill-opacity="0.8"/>
</g>
</svg>
