<svg width="16" height="21" viewBox="0 0 16 21" fill="none" xmlns="http://www.w3.org/2000/svg">
<path d="M8 10.9473C8.55 10.9473 9.02083 10.7514 9.4125 10.3598C9.80417 9.9681 10 9.49727 10 8.94727C10 8.39727 9.80417 7.92643 9.4125 7.53477C9.02083 7.1431 8.55 6.94727 8 6.94727C7.45 6.94727 6.97917 7.1431 6.5875 7.53477C6.19583 7.92643 6 8.39727 6 8.94727C6 9.49727 6.19583 9.9681 6.5875 10.3598C6.97917 10.7514 7.45 10.9473 8 10.9473ZM8 18.2973C10.0333 16.4306 11.5417 14.7348 12.525 13.2098C13.5083 11.6848 14 10.3306 14 9.14727C14 7.3306 13.4208 5.8431 12.2625 4.68477C11.1042 3.52643 9.68333 2.94727 8 2.94727C6.31667 2.94727 4.89583 3.52643 3.7375 4.68477C2.57917 5.8431 2 7.3306 2 9.14727C2 10.3306 2.49167 11.6848 3.475 13.2098C4.45833 14.7348 5.96667 16.4306 8 18.2973ZM8 20.9473C5.31667 18.6639 3.3125 16.5431 1.9875 14.5848C0.6625 12.6264 0 10.8139 0 9.14727C0 6.64727 0.804167 4.6556 2.4125 3.17227C4.02083 1.68893 5.88333 0.947266 8 0.947266C10.1167 0.947266 11.9792 1.68893 13.5875 3.17227C15.1958 4.6556 16 6.64727 16 9.14727C16 10.8139 15.3375 12.6264 14.0125 14.5848C12.6875 16.5431 10.6833 18.6639 8 20.9473Z" fill="#202224"/>
</svg>
