<svg width="18" height="19" viewBox="0 0 18 19" fill="none" xmlns="http://www.w3.org/2000/svg">
<g id="locked-svgrepo-com 1">
<path id="Vector" d="M2.25 17.9375V8.9375H3.9375V6.125C3.9375 3.63987 5.95181 1.625 8.4375 1.625H9C11.4851 1.625 13.5 3.63987 13.5 6.125V8.9375H15.1875V17.9375H2.25ZM8.2935 13.3177L7.875 16.25H9.5625L9.14344 13.3177C9.5535 13.1501 9.84375 12.7479 9.84375 12.2771C9.84375 11.6561 9.33975 11.1521 8.71875 11.1521C8.09719 11.1521 7.59375 11.6561 7.59375 12.2771C7.59375 12.7479 7.88344 13.1501 8.2935 13.3177ZM11.8125 6.40625C11.8125 4.69737 10.4271 3.3125 8.71875 3.3125C7.00987 3.3125 5.625 4.69737 5.625 6.40625V8.9375H11.8125V6.40625Z" fill="black"/>
</g>
</svg>
