<svg width="20" height="21" viewBox="0 0 20 21" fill="none" xmlns="http://www.w3.org/2000/svg">
<g id="wrong-delete-remove-trash-minus-cancel-close-svgrepo-com 1">
<path id="Vector" d="M10 2.33008C8.31886 2.33008 6.67547 2.8286 5.27766 3.76259C3.87984 4.69658 2.79037 6.0241 2.14703 7.57727C1.50368 9.13044 1.33535 10.8395 1.66333 12.4883C1.9913 14.1372 2.80085 15.6517 3.9896 16.8405C5.17834 18.0292 6.6929 18.8388 8.34174 19.1668C9.99057 19.4947 11.6996 19.3264 13.2528 18.6831C14.806 18.0397 16.1335 16.9502 17.0675 15.5524C18.0015 14.1546 18.5 12.5112 18.5 10.8301C18.5009 9.71359 18.2817 8.60787 17.8549 7.57618C17.428 6.5445 16.8019 5.6071 16.0125 4.81762C15.223 4.02814 14.2856 3.40207 13.2539 2.97523C12.2222 2.54839 11.1165 2.32916 10 2.33008ZM10 17.3301C8.71442 17.3301 7.45772 16.9489 6.3888 16.2346C5.31988 15.5204 4.48676 14.5052 3.99479 13.3175C3.50282 12.1298 3.3741 10.8229 3.6249 9.56199C3.8757 8.30112 4.49477 7.14293 5.40381 6.23389C6.31285 5.32485 7.47104 4.70578 8.73192 4.45498C9.99279 4.20417 11.2997 4.33289 12.4874 4.82486C13.6752 5.31683 14.6903 6.14996 15.4046 7.21887C16.1188 8.28779 16.5 9.5445 16.5 10.8301C16.5017 11.6842 16.3348 12.5302 16.0087 13.3195C15.6827 14.1089 15.2039 14.8262 14.6 15.4301C13.9961 16.034 13.2789 16.5127 12.4895 16.8388C11.7001 17.1648 10.8541 17.3318 10 17.3301Z" fill="#202224" fill-opacity="0.7"/>
<path id="Vector_2" d="M12.847 8.22954C12.7567 8.13478 12.6481 8.05935 12.5278 8.00781C12.4074 7.95626 12.2779 7.92969 12.147 7.92969C12.0161 7.92969 11.8866 7.95626 11.7662 8.00781C11.6459 8.05935 11.5373 8.13478 11.447 8.22954L9.99699 9.67954L8.59699 8.27954C8.4107 8.09697 8.15989 7.9953 7.89906 7.99662C7.63823 7.99794 7.38846 8.10214 7.20403 8.28657C7.01959 8.47101 6.91539 8.72078 6.91408 8.98161C6.91276 9.24244 7.01443 9.49325 7.19699 9.67954L8.59699 11.0795L7.19699 12.4795C7.01443 12.6658 6.91276 12.9166 6.91408 13.1775C6.91539 13.4383 7.01959 13.6881 7.20403 13.8725C7.38846 14.0569 7.63823 14.1611 7.89906 14.1625C8.15989 14.1638 8.4107 14.0621 8.59699 13.8795L9.99699 12.4795L11.397 13.8795C11.5833 14.0621 11.8341 14.1638 12.0949 14.1625C12.3557 14.1611 12.6055 14.0569 12.79 13.8725C12.9744 13.6881 13.0786 13.4383 13.0799 13.1775C13.0812 12.9166 12.9796 12.6658 12.797 12.4795L11.397 11.0795L12.797 9.67954C12.9845 9.48753 13.0935 9.23243 13.1028 8.96422C13.112 8.69601 13.0208 8.43401 12.847 8.22954Z" fill="#202224" fill-opacity="0.7"/>
</g>
</svg>
