<svg width="24" height="24" viewBox="0 0 24 24" fill="none" xmlns="http://www.w3.org/2000/svg">
<path fill-rule="evenodd" clip-rule="evenodd" d="M16.2318 9.33312C16.2318 13.0138 13.2481 15.9975 9.56744 15.9975C5.88682 15.9975 2.90309 13.0138 2.90309 9.33312C2.90309 5.65248 5.88682 2.66873 9.56744 2.66873C13.2481 2.66873 16.2318 5.65248 16.2318 9.33312ZM15.0164 16.3528C13.5115 17.5225 11.6208 18.219 9.56744 18.219C4.65995 18.219 0.681641 14.2406 0.681641 9.33312C0.681641 4.4256 4.65995 0.447266 9.56744 0.447266C14.4749 0.447266 18.4532 4.4256 18.4532 9.33312C18.4532 11.3865 17.7567 13.2773 16.5871 14.7819L23.6816 21.8765L22.1108 23.4473L15.0164 16.3528Z" fill="#1A1A1A" fill-opacity="0.8"/>
</svg>
