<svg width="24" height="25" viewBox="0 0 24 25" fill="none" xmlns="http://www.w3.org/2000/svg">
<path d="M12 13.6797C11.1667 13.6797 10.4583 13.388 9.875 12.8047C9.29167 12.2214 9 11.513 9 10.6797C9 9.84635 9.29167 9.13802 9.875 8.55469C10.4583 7.97135 11.1667 7.67969 12 7.67969C12.8333 7.67969 13.5417 7.97135 14.125 8.55469C14.7083 9.13802 15 9.84635 15 10.6797C15 11.513 14.7083 12.2214 14.125 12.8047C13.5417 13.388 12.8333 13.6797 12 13.6797ZM6 23.6797V15.9547C5.36667 15.2547 4.875 14.4547 4.525 13.5547C4.175 12.6547 4 11.6964 4 10.6797C4 8.44635 4.775 6.55469 6.325 5.00469C7.875 3.45469 9.76667 2.67969 12 2.67969C14.2333 2.67969 16.125 3.45469 17.675 5.00469C19.225 6.55469 20 8.44635 20 10.6797C20 11.6964 19.825 12.6547 19.475 13.5547C19.125 14.4547 18.6333 15.2547 18 15.9547V23.6797L12 21.6797L6 23.6797ZM12 16.6797C13.6667 16.6797 15.0833 16.0964 16.25 14.9297C17.4167 13.763 18 12.3464 18 10.6797C18 9.01302 17.4167 7.59635 16.25 6.42969C15.0833 5.26302 13.6667 4.67969 12 4.67969C10.3333 4.67969 8.91667 5.26302 7.75 6.42969C6.58333 7.59635 6 9.01302 6 10.6797C6 12.3464 6.58333 13.763 7.75 14.9297C8.91667 16.0964 10.3333 16.6797 12 16.6797ZM8 20.7047L12 19.6797L16 20.7047V17.6047C15.4167 17.938 14.7875 18.2005 14.1125 18.3922C13.4375 18.5839 12.7333 18.6797 12 18.6797C11.2667 18.6797 10.5625 18.5839 9.8875 18.3922C9.2125 18.2005 8.58333 17.938 8 17.6047V20.7047Z" fill="#1A1A1A"/>
</svg>
