<svg width="19" height="17" viewBox="0 0 19 17" fill="none" xmlns="http://www.w3.org/2000/svg">
<g id="view-svgrepo-com 1">
<path id="Vector" d="M9.44406 7.35378C10.1494 7.35378 10.7242 7.86856 10.7242 8.49916C10.7242 9.12975 10.1488 9.62806 9.44406 9.62806C8.73927 9.62806 8.18234 9.12975 8.18234 8.49916C8.18234 7.86856 8.73927 7.35378 9.44406 7.35378ZM9.44406 4.53125C13.6377 4.53125 16.6617 8.05078 16.6617 8.05078C16.8659 8.28347 16.8659 8.69838 16.6617 8.93053C16.6617 8.93053 13.6371 12.4501 9.44406 12.4501C5.25099 12.4501 2.22643 8.93053 2.22643 8.93053C2.02218 8.69784 2.02218 8.28294 2.22643 8.05078C2.22643 8.05078 5.25099 4.53125 9.44406 4.53125ZM9.44406 11.3382C11.1885 11.3382 12.6171 10.06 12.6171 8.49916C12.6171 6.93834 11.1885 5.66016 9.44406 5.66016C7.69962 5.66016 6.27105 6.93834 6.27105 8.49916C6.27105 10.06 7.69962 11.3382 9.44406 11.3382Z" fill="black"/>
</g>
</svg>
