<svg width="20" height="21" viewBox="0 0 20 21" fill="none" xmlns="http://www.w3.org/2000/svg">
<path fill-rule="evenodd" clip-rule="evenodd" d="M9.9974 18.6628C14.5998 18.6628 18.3307 14.9318 18.3307 10.3294C18.3307 5.72705 14.5998 1.99609 9.9974 1.99609C5.39502 1.99609 1.66406 5.72705 1.66406 10.3294C1.66406 14.9318 5.39502 18.6628 9.9974 18.6628ZM14.473 7.6923C14.6274 7.52168 14.6143 7.25818 14.4436 7.1038C14.273 6.94939 14.0095 6.96255 13.8551 7.13322L8.86444 12.6492L6.11844 10.028C5.95198 9.86914 5.68823 9.87526 5.52931 10.0417C5.37044 10.2082 5.37656 10.4719 5.54302 10.6308L8.5986 13.5475L8.90815 13.843L9.19527 13.5256L14.473 7.6923Z" fill="#00A79D"/>
</svg>
